<?xml version="1.0" encoding="UTF-8"?>
<svg version="1.1" xmlns="http://www.w3.org/2000/svg" width="821" height="530">
<path d="M0 0 C270.93 0 541.86 0 821 0 C821 174.9 821 349.8 821 530 C550.07 530 279.14 530 0 530 C0 355.1 0 180.2 0 0 Z " fill="#FDF5EA" transform="translate(0,0)"/>
<path d="M0 0 C2.9289733 1.44981244 5.72644211 1.02343969 8.94921875 0.96484375 C9.93921875 1.29484375 10.92921875 1.62484375 11.94921875 1.96484375 C13.6769606 2.09044695 15.40652428 2.19193218 17.13671875 2.27734375 C21.72445117 2.66115404 24.76613621 3.60432139 28.72265625 5.859375 C31.55114503 7.26369487 34.41827258 8.08343067 37.44921875 8.96484375 C41.98164806 10.29945053 46.05698838 11.80688848 50.2109375 14.04296875 C52.15354824 15.1091624 52.15354824 15.1091624 55.13671875 16.27734375 C63.16162983 19.64262904 70.76927194 24.07781635 77.94921875 28.96484375 C78.74585938 29.48046875 79.5425 29.99609375 80.36328125 30.52734375 C84.29978668 33.08676777 87.67694106 35.5797289 90.94921875 38.96484375 C92.94206013 40.30885305 94.94341546 41.64025667 96.94921875 42.96484375 C103.31541344 47.33709822 108.03320602 52.16752381 112.7109375 58.31640625 C114.77794927 60.76218981 116.95777492 62.5809105 119.44360352 64.57617188 C122.20059054 67.11901965 124.08165181 70.25006513 126.07421875 73.40234375 C126.49058594 74.04494141 126.90695312 74.68753906 127.3359375 75.34960938 C128.15536968 76.61472018 128.97060472 77.88256122 129.78125 79.15332031 C130.89725401 80.88424626 132.04699052 82.58746153 133.20703125 84.2890625 C134.73936867 86.64254038 135.52782704 88.2257976 135.94921875 90.96484375 C136.60921875 90.96484375 137.26921875 90.96484375 137.94921875 90.96484375 C145.37109375 105.80859375 145.37109375 105.80859375 146.68774414 108.45361328 C147.48419779 110.03912174 148.29184621 111.61910074 149.11499023 113.19091797 C151.15958793 117.12258416 152.58528083 120.71985356 153.51171875 125.08984375 C154.51816894 129.44930465 155.83164102 133.00589409 157.94921875 136.96484375 C158.66583945 139.28332249 159.33163902 141.61804078 159.94921875 143.96484375 C160.27664063 145.021875 160.6040625 146.07890625 160.94140625 147.16796875 C162.01639252 151.21791703 162.56889817 155.12253153 163.01171875 159.27734375 C163.40171961 164.27205992 163.40171961 164.27205992 164.94921875 168.96484375 C165.11174391 173.84059851 164.77109186 178.15101553 163.94921875 182.96484375 C164.27921875 183.29484375 164.60921875 183.62484375 164.94921875 183.96484375 C165.23527477 188.22837871 165.18124103 192.50538883 165.19921875 196.77734375 C165.23015625 198.55141602 165.23015625 198.55141602 165.26171875 200.36132812 C165.29256578 207.3905952 164.56663219 213.52229005 162.66650391 220.28735352 C161.70370469 223.88130143 161.35266191 227.32293882 161.01171875 231.02734375 C160.2900653 237.81966306 158.53929978 243.67175624 155.94921875 249.96484375 C155.51416016 251.31642578 155.51416016 251.31642578 155.0703125 252.6953125 C153.60989508 256.95443927 151.83111113 261.03617713 150.01171875 265.15234375 C149.66431641 265.95865234 149.31691406 266.76496094 148.95898438 267.59570312 C148.61673828 268.37107422 148.27449219 269.14644531 147.921875 269.9453125 C147.46180054 270.99561646 147.46180054 270.99561646 146.99243164 272.06713867 C145.88230844 274.08656008 144.60367733 275.3792269 142.94921875 276.96484375 C142.03306898 278.93014962 142.03306898 278.93014962 141.38671875 281.02734375 C140.48320119 283.76852414 140.04221081 284.87185169 137.94921875 286.96484375 C137.68109375 287.70734375 137.41296875 288.44984375 137.13671875 289.21484375 C135.92801353 292.01395057 134.38505159 293.87493086 132.3828125 296.14453125 C129.99654081 299.17451111 128.17908936 302.54061305 126.28125 305.890625 C124.94921875 307.96484375 124.94921875 307.96484375 122.94921875 308.96484375 C122.53671875 309.89296875 122.12421875 310.82109375 121.69921875 311.77734375 C119.62942064 315.54733316 117.54124249 316.69233893 113.94921875 318.96484375 C113.28921875 319.81046875 112.62921875 320.65609375 111.94921875 321.52734375 C109.94921875 323.96484375 109.94921875 323.96484375 107.21875 325.20703125 C103.16459524 327.38668435 100.654846 330.11080867 97.63671875 333.52734375 C97.09982422 334.11708984 96.56292969 334.70683594 96.00976562 335.31445312 C93.16385117 338.41440304 93.16385117 338.41440304 90.94921875 341.96484375 C89.23049237 342.95641666 87.50920017 343.94408471 85.76953125 344.8984375 C83.78089874 346.00080052 83.78089874 346.00080052 81.57421875 347.90234375 C78.58804251 350.24862508 75.46420508 351.89735508 72.1171875 353.671875 C69.71531527 354.98427646 69.71531527 354.98427646 67.32421875 357.58984375 C63.36346463 361.19154934 57.60205995 361.34987701 52.5078125 362.09375 C48.64508958 363.0392903 46.92970277 364.4276112 43.94921875 366.96484375 C41.88671875 367.46875 41.88671875 367.46875 39.94921875 367.52734375 C37.16441845 367.62279053 35.99932305 367.93320765 33.5859375 369.45703125 C30.47209365 371.23768862 28.32235643 371.39022603 24.76171875 371.52734375 C20.33510569 371.495726 20.33510569 371.495726 16.94921875 373.96484375 C14.93967215 373.96484375 12.92783653 373.9598265 10.921875 373.83984375 C8.62360322 373.82010805 8.62360322 373.82010805 5.94921875 375.96484375 C3.66481005 376.21180685 1.36988676 376.36777534 -0.92578125 376.46484375 C-5.52501129 376.66014014 -8.81728365 377.26738704 -13.05078125 378.96484375 C-17.38882524 379.2963782 -21.70535474 379.12388533 -26.05078125 378.96484375 C-26.96730469 378.93519531 -27.88382813 378.90554688 -28.828125 378.875 C-31.23828125 378.71484375 -31.23828125 378.71484375 -35.05078125 377.96484375 C-36.2890625 375.91796875 -36.2890625 375.91796875 -37.05078125 373.96484375 C-36.05078125 372.96484375 -36.05078125 372.96484375 -32.92578125 372.83984375 C-29.22456913 372.95923769 -25.70237048 373.36866592 -22.05078125 373.96484375 C-21.72078125 373.30484375 -21.39078125 372.64484375 -21.05078125 371.96484375 C-21.62820068 371.95026123 -22.20562012 371.93567871 -22.80053711 371.9206543 C-35.47753483 371.56534179 -47.66047983 370.70123249 -60.05078125 367.96484375 C-60.82599121 367.80000488 -61.60120117 367.63516602 -62.39990234 367.46533203 C-94.072723 360.62450903 -121.37810748 345.66339557 -146.05078125 324.96484375 C-146.6334375 324.5059375 -147.21609375 324.04703125 -147.81640625 323.57421875 C-151.34250272 320.79045838 -154.18753126 317.6537234 -157.078125 314.2421875 C-158.46854865 312.63700534 -159.90303319 311.0694762 -161.3671875 309.53125 C-184.73070975 284.92459824 -199.99683532 250.27817748 -205.05078125 216.96484375 C-205.25445312 215.90265625 -205.458125 214.84046875 -205.66796875 213.74609375 C-213.25790084 170.90976469 -201.44842724 123.00289519 -177.33203125 87.16796875 C-170.51993423 77.60303801 -163.37359774 68.28766024 -155.05078125 59.96484375 C-156.04078125 59.30484375 -157.03078125 58.64484375 -158.05078125 57.96484375 C-157.51426172 53.93169693 -155.50876917 52.02032694 -152.67578125 49.21484375 C-151.88429688 48.415625 -151.0928125 47.61640625 -150.27734375 46.79296875 C-148.05078125 44.96484375 -148.05078125 44.96484375 -145.05078125 44.96484375 C-144.82390625 44.38734375 -144.59703125 43.80984375 -144.36328125 43.21484375 C-142.70229903 40.36744566 -140.73553564 38.84417182 -138.05078125 36.96484375 C-137.39078125 36.96484375 -136.73078125 36.96484375 -136.05078125 36.96484375 C-136.05078125 36.30484375 -136.05078125 35.64484375 -136.05078125 34.96484375 C-134.4765625 33.8515625 -134.4765625 33.8515625 -132.36328125 32.65234375 C-129.57987414 30.9960205 -127.69028946 29.60435196 -125.36328125 27.27734375 C-122.93746578 24.85152828 -121.19462214 24.17401332 -118.05078125 22.96484375 C-117.39078125 22.30484375 -116.73078125 21.64484375 -116.05078125 20.96484375 C-113.06627581 17.98033831 -110.42906924 17.02610099 -106.23828125 16.83984375 C-105.51640625 16.88109375 -104.79453125 16.92234375 -104.05078125 16.96484375 C-104.05078125 16.30484375 -104.05078125 15.64484375 -104.05078125 14.96484375 C-101.59980467 13.98271484 -99.14800332 13.00315311 -96.69140625 12.03515625 C-95.9025 11.72320312 -95.11359375 11.41125 -94.30078125 11.08984375 C-93.42679687 10.744375 -92.5528125 10.39890625 -91.65234375 10.04296875 C-89.27508764 9.05779955 -86.98801137 7.96653043 -84.67578125 6.83984375 C-80.23915824 4.82605742 -75.85253563 4.09570002 -71.04296875 3.45703125 C-67.95477463 3.0156197 -67.95477463 3.0156197 -64.67578125 1.9453125 C-60.77021462 0.88895773 -57.21211934 0.59017334 -53.17578125 0.40234375 C-48.79370995 0.58923717 -48.79370995 0.58923717 -45.05078125 -1.03515625 C-42.149471 -1.27919169 -39.27020342 -1.46263148 -36.36328125 -1.59765625 C-35.50420166 -1.63938965 -34.64512207 -1.68112305 -33.76000977 -1.72412109 C-5.9300072 -2.99324173 -5.9300072 -2.99324173 0 0 Z " fill="#111111" transform="translate(427.05078125,72.03515625)"/>
<path d="M0 0 C0.66072888 -0.00436032 1.32145777 -0.00872064 2.00220874 -0.0132131 C4.23201437 -0.02422353 6.46120862 -0.01372097 8.69101048 -0.00342751 C10.29942425 -0.0068818 11.90783566 -0.01164483 13.51624209 -0.01760924 C17.94841932 -0.03018043 22.38040379 -0.02392118 26.8125819 -0.01465058 C31.58771497 -0.00788531 36.36281402 -0.01832879 41.13794041 -0.02659035 C50.49757828 -0.03995722 59.85714414 -0.03703673 69.21678489 -0.02835242 C76.8215678 -0.02158748 84.42633048 -0.020654 92.03111553 -0.02392387 C93.11194505 -0.02438357 94.19277458 -0.02484327 95.30635651 -0.0253169 C97.50179899 -0.02627604 99.69724146 -0.02724868 101.89268393 -0.02823468 C122.49842682 -0.03679733 143.10412972 -0.02694094 163.70986605 -0.01083358 C181.40270267 0.00256849 199.09548023 0.00024411 216.78831577 -0.01358986 C237.31690699 -0.0296335 257.84546312 -0.03597127 278.37405974 -0.02675307 C280.56189954 -0.02579739 282.74973934 -0.02485428 284.93757915 -0.02392387 C286.01413435 -0.02346105 287.09068954 -0.02299822 288.19986762 -0.02252137 C295.79779391 -0.01992769 303.39569801 -0.02431065 310.99362087 -0.03136253 C320.24977825 -0.03976432 329.50585928 -0.03752535 338.76200788 -0.0215203 C343.48751382 -0.01361946 348.21289233 -0.01057673 352.93839741 -0.02046776 C357.26054762 -0.02937788 361.58245173 -0.02454295 365.90457947 -0.0085351 C367.47184286 -0.00517159 369.03912686 -0.00691639 370.60637712 -0.01416247 C372.73010713 -0.02323153 374.85298448 -0.01398399 376.97666931 0 C378.74904281 0.00073059 378.74904281 0.00073059 380.55722183 0.00147593 C383.93346666 0.42552878 385.33149054 0.79109087 387.55125523 3.37752342 C388.05265188 6.30391592 388.05265188 6.30391592 388.05461979 9.96682453 C388.06043355 10.64274878 388.06624732 11.31867303 388.07223725 12.01507983 C388.0869209 14.29672715 388.07291431 16.57731269 388.0591898 18.85895348 C388.06379545 20.50449284 388.0701461 22.1500281 388.07809877 23.7955547 C388.09486167 28.33039326 388.08651431 32.86489693 388.0741539 37.399737 C388.06513399 42.28531056 388.07905793 47.17082499 388.09007359 52.05638695 C388.10789661 61.63261303 388.1040019 71.20871399 388.09242302 80.78494506 C388.08340329 88.56564778 388.08215836 96.34631534 388.08651829 104.12702179 C388.08713122 105.23282956 388.08774415 106.33863734 388.08837566 107.47795444 C388.08965451 109.72412992 388.09095136 111.97030539 388.09226602 114.21648086 C388.10368304 135.2986513 388.09054082 156.38075227 388.06906456 177.46291132 C388.05119505 195.56509874 388.05429432 213.66718356 388.0727396 231.76936913 C388.09413078 252.77260706 388.10258169 273.77578403 388.09029055 294.77903134 C388.0890163 297.01742398 388.08775882 299.25581663 388.08651829 301.49420929 C388.08559263 303.14635757 388.08559263 303.14635757 388.08464828 304.83188258 C388.08118994 312.60564515 388.0870342 320.37936916 388.0964365 328.15312576 C388.10763852 337.62340122 388.10465444 347.09354401 388.08331352 356.5638042 C388.07277849 361.39870607 388.06872288 366.23338651 388.08191013 371.0682869 C388.09378941 375.49042598 388.08734573 379.91213743 388.06599993 384.33423746 C388.06151479 385.93783795 388.06384272 387.54147423 388.07350308 389.14505189 C388.08559399 391.31801518 388.07326911 393.48949646 388.05461979 395.66238117 C388.05397038 396.87130337 388.05332097 398.08022556 388.05265188 399.32578176 C387.55125523 402.37752342 387.55125523 402.37752342 385.93070656 404.76575953 C382.78285238 406.89801483 380.76905715 406.87880365 376.97666931 406.88088799 C376.31448699 406.88670175 375.65230466 406.89251551 374.97005621 406.89850545 C372.74117631 406.91315582 370.51338902 406.89919804 368.28451633 406.88545799 C366.6745243 406.89006494 365.06453647 406.89641647 363.45455748 406.90436697 C359.02265904 406.92111167 354.59110379 406.91279074 350.15920389 406.9004221 C345.38273372 406.89139495 340.60632377 406.90532965 335.82986546 406.91634178 C326.47001384 406.93415621 317.11029031 406.93027414 307.75043362 406.91869122 C300.14613807 406.90966919 292.54187851 406.90842755 284.93757915 406.91278648 C283.8565964 406.91339942 282.77561364 406.91401235 281.66187384 406.91464385 C279.46610715 406.91592271 277.27034048 406.91721956 275.07457382 406.91853422 C254.47075231 406.92994844 233.86700191 406.91681282 213.26319207 406.89533275 C195.57003362 406.87745849 177.87698014 406.88056698 160.18382359 406.8990078 C139.65376209 406.92039528 119.12376296 406.9288524 98.59369189 406.91655874 C96.40616644 406.9152845 94.21864099 406.91402702 92.03111553 406.91278648 C90.95471461 406.91216938 89.8783137 406.91155228 88.76929457 406.91091648 C81.17037929 406.90745739 73.57150344 406.91330387 65.97259426 406.9227047 C56.71750837 406.9339024 47.46255825 406.93093161 38.20748799 406.90958172 C33.48206572 406.89904158 28.75687011 406.89499972 24.03144932 406.90817833 C19.71055512 406.92004688 15.39009894 406.913632 11.06924481 406.89226812 C9.5013581 406.88777844 7.93343481 406.89012094 6.36557137 406.89977127 C4.24317922 406.91183856 2.12231091 406.89956223 0 406.88088799 C-1.18141998 406.88023858 -2.36283996 406.87958917 -3.58006054 406.87892008 C-6.44874477 406.37752342 -6.44874477 406.37752342 -8.32819611 404.76575953 C-9.81496383 401.59699725 -9.8248572 399.16461916 -9.8262682 395.66238117 C-9.83062852 394.98500348 -9.83498884 394.3076258 -9.83948129 393.60972151 C-9.85047035 391.3293161 -9.83999899 389.04951119 -9.8296957 386.76910973 C-9.83315083 385.12199708 -9.83791441 383.47488674 -9.84387743 381.82778126 C-9.85643696 377.29331995 -9.85019463 372.7590473 -9.84091878 368.22458518 C-9.8341489 363.33769534 -9.84459922 358.45083862 -9.85285854 353.56395531 C-9.86621984 343.98755094 -9.86330757 334.41121699 -9.85462062 324.83480983 C-9.84785429 317.05460376 -9.84692279 309.27441746 -9.85019207 301.49420929 C-9.85065177 300.38824828 -9.85111147 299.28228728 -9.8515851 298.1428123 C-9.85254424 295.89631262 -9.85351688 293.64981295 -9.85450287 291.40331329 C-9.86306369 270.32308809 -9.85321159 249.24290198 -9.83710177 228.1626832 C-9.82369611 210.06020476 -9.8260274 191.95778402 -9.83985806 173.85530663 C-9.85589847 152.85061364 -9.86224161 131.84595493 -9.85302126 110.84125668 C-9.85206558 108.60317839 -9.85112247 106.36510009 -9.85019207 104.12702179 C-9.84972924 103.02574388 -9.84926642 101.92446597 -9.84878957 100.789816 C-9.84619519 93.01507758 -9.85058025 85.24036083 -9.85763073 77.46562576 C-9.86602877 67.99646545 -9.86380134 58.52737978 -9.8477885 49.05822807 C-9.83988316 44.22347564 -9.83685256 39.38884784 -9.84673595 34.55409622 C-9.85563662 30.13335093 -9.850827 25.71284647 -9.8348033 21.29212321 C-9.83143578 19.68789557 -9.83319341 18.08364784 -9.84043066 16.47943299 C-9.84947875 14.30826918 -9.84027388 12.13794364 -9.8262682 9.96682453 C-9.82578114 8.75806469 -9.82529408 7.54930485 -9.82479227 6.30391592 C-9.44874477 3.37752342 -9.44874477 3.37752342 -8.32819611 1.48928732 C-5.52756756 -0.16738644 -3.24144927 0.00133633 0 0 Z M173.23875523 12.81502342 C172.39578892 12.8541787 171.55282261 12.89333397 170.68431187 12.93367577 C166.79977961 12.78293337 166.79977961 12.78293337 163.55125523 14.37752342 C161.24098065 14.53849739 158.9275953 14.65543922 156.61375523 14.75252342 C151.03093334 15.04322657 146.08729542 15.87206546 140.80125523 17.69783592 C138.52833013 18.38444871 136.53978633 18.60902332 134.17625523 18.75252342 C128.17453101 19.26330846 122.97764473 21.91786291 117.55125523 24.37752342 C116.24024199 24.94347996 114.92802592 25.50667313 113.61375523 26.06502342 C112.60313023 26.49814842 111.59250523 26.93127342 110.55125523 27.37752342 C108.88704173 28.05029058 107.2213894 28.71959178 105.55125523 29.37752342 C105.55125523 30.03752342 105.55125523 30.69752342 105.55125523 31.37752342 C104.56125523 31.25377342 104.56125523 31.25377342 103.55125523 31.12752342 C99.38971149 31.47431873 96.02578232 33.08418214 92.55125523 35.37752342 C91.56125523 36.86252342 91.56125523 36.86252342 90.55125523 38.37752342 C89.43750523 38.85189842 88.32375523 39.32627342 87.17625523 39.81502342 C83.60155223 41.35584368 82.15183068 42.60916891 79.55125523 45.37752342 C78.47875523 46.07877342 77.40625523 46.78002342 76.30125523 47.50252342 C74.94000523 48.43064842 74.94000523 48.43064842 73.55125523 49.37752342 C73.55125523 50.03752342 73.55125523 50.69752342 73.55125523 51.37752342 C72.43750523 51.74877342 72.43750523 51.74877342 71.30125523 52.12752342 C68.32102436 53.48217382 66.65206271 54.88767752 64.55125523 57.37752342 C64.55125523 58.03752342 64.55125523 58.69752342 64.55125523 59.37752342 C63.99051304 59.45357811 63.42977085 59.5296328 62.85203648 59.60799217 C59.73178296 60.65160837 58.07098279 62.38793773 55.73875523 64.69002342 C54.92793491 65.46990623 54.1171146 66.24978905 53.28172398 67.05330467 C51.30446963 69.1937595 51.30446963 69.1937595 51.66453648 71.60799217 C52.42316383 73.56318342 52.42316383 73.56318342 54.55125523 74.37752342 C54.08977085 74.80420311 53.62828648 75.2308828 53.15281773 75.67049217 C29.06740827 98.75630954 13.60971079 131.13843802 6.55125523 163.37752342 C6.26379429 164.6433828 5.97633335 165.90924217 5.68016148 167.21346092 C3.87319375 175.59986614 2.79399729 183.80628234 2.55125523 192.37752342 C2.52402378 193.2726162 2.49679234 194.16770897 2.46873569 195.08992577 C1.9470365 215.16057956 3.62451849 234.14091374 9.55125523 253.37752342 C9.75057652 254.05283104 9.9498978 254.72813866 10.15525913 255.42391014 C18.06962665 282.09149031 31.75144142 305.61682891 50.49266148 326.09627342 C52.10344295 327.88127604 53.6250218 329.68029693 55.11375523 331.56502342 C83.87299551 364.74876222 132.2176051 382.86547966 174.81053257 385.97200584 C179.39600323 386.26311532 183.95463315 386.45464795 188.55125523 386.37752342 C188.22125523 387.03752342 187.89125523 387.69752342 187.55125523 388.37752342 C182.93125523 388.04752342 178.31125523 387.71752342 173.55125523 387.37752342 C173.32764843 390.30298782 173.32764843 390.30298782 174.55125523 392.37752342 C181.96254093 393.61273771 191.91410504 395.23682805 198.99656773 392.39705467 C203.2927184 390.68253583 207.79249363 390.91489178 212.37156773 390.72127342 C215.70518674 390.60860992 215.70518674 390.60860992 218.55125523 388.37752342 C220.52391148 388.25252342 220.52391148 388.25252342 222.61375523 388.37752342 C223.91313023 388.37752342 225.21250523 388.37752342 226.55125523 388.37752342 C227.21125523 387.71752342 227.87125523 387.05752342 228.55125523 386.37752342 C231.53880407 386.02890251 234.50335196 385.93464765 237.50828648 385.81892967 C240.87713506 385.33025202 242.70414743 384.1752014 245.55125523 382.37752342 C247.56447668 382.01529608 249.44797747 381.94314674 251.48875523 381.88142967 C253.76982514 381.48749129 253.76982514 381.48749129 255.84813023 379.42439842 C259.1995157 376.8866441 261.66069875 376.62306138 265.80125523 376.06502342 C271.89451467 375.06630967 275.82249214 373.34207201 280.43016148 369.21346092 C282.75344208 367.20251823 285.14386067 365.72748812 287.80125523 364.19002342 C291.3104796 362.15521735 294.40745481 359.94972377 297.55125523 357.37752342 C298.54125523 357.04752342 299.53125523 356.71752342 300.55125523 356.37752342 C302.19942193 354.78950817 302.19942193 354.78950817 303.80125523 352.81502342 C304.41227085 352.09959373 305.02328648 351.38416405 305.65281773 350.64705467 C306.90475416 349.15039815 308.14973282 347.6478901 309.38719273 346.13924217 C312.66181271 342.22828774 314.76389013 340.21881769 319.55125523 338.37752342 C321.16049605 336.67189578 322.59963062 334.89599105 324.02391148 333.03377342 C325.55125523 331.37752342 325.55125523 331.37752342 327.63719273 330.34627342 C330.57155852 328.86112502 331.16591906 326.26865976 332.55125523 323.37752342 C333.54125523 322.71752342 334.53125523 322.05752342 335.55125523 321.37752342 C336.57361374 319.64286595 337.52480834 317.86548086 338.42625523 316.06502342 C340.68801089 311.74968363 342.99507892 308.73613438 346.55125523 305.37752342 C347.70647025 302.90621425 347.70647025 302.90621425 348.55125523 300.37752342 C349.55125523 298.71085676 350.55125523 297.04419009 351.55125523 295.37752342 C351.84000523 294.61439842 352.12875523 293.85127342 352.42625523 293.06502342 C353.4119326 290.7103497 354.46373745 288.92595365 355.86375523 286.81502342 C360.4517266 279.64208883 363.32393292 271.51937347 365.86766148 263.42830467 C366.50496363 261.5163982 367.30427622 259.66063555 368.11375523 257.81502342 C370.09404307 252.67448346 370.39772803 247.20757418 370.92625523 241.76814842 C371.32408319 238.30298565 372.15710741 235.09339873 373.09813023 231.73689842 C374.86693091 224.90915564 374.92506187 218.39581241 374.80125523 211.37752342 C374.79609898 210.17740623 374.79094273 208.97728905 374.78563023 207.74080467 C374.86274199 201.91412759 374.86274199 201.91412759 373.97605991 196.19783592 C373.55125523 194.37752342 373.55125523 194.37752342 374.55125523 191.37752342 C374.83160597 186.05085932 374.27019723 181.43781051 373.12156773 176.24471092 C372.20306796 171.6270477 371.68250753 166.95566736 371.11375523 162.28377342 C370.81053919 159.26356911 370.81053919 159.26356911 368.55125523 157.37752342 C367.98875523 155.31892967 367.98875523 155.31892967 367.55125523 152.94002342 C366.9466847 149.66346708 366.46428423 148.24706692 364.55125523 145.37752342 C364.08799679 143.34154684 363.65586395 141.29845337 363.23875523 139.25252342 C360.42108103 127.10559871 353.50197276 116.21045238 347.55125523 105.37752342 C346.89125523 105.37752342 346.23125523 105.37752342 345.55125523 105.37752342 C345.43781773 104.79873436 345.32438023 104.2199453 345.20750523 103.62361717 C344.48766087 101.15986417 343.50827591 99.54865614 342.05125523 97.44002342 C341.51500523 96.66271873 340.97875523 95.88541405 340.42625523 95.08455467 C339.80750523 94.19123436 339.18875523 93.29791405 338.55125523 92.37752342 C337.82938023 91.28826561 337.10750523 90.1990078 336.36375523 89.07674217 C335.5933026 87.92674744 334.82247085 86.77700661 334.05125523 85.62752342 C332.98391148 84.0265078 332.98391148 84.0265078 331.89500523 82.39314842 C329.40294011 79.18669131 326.68483853 76.94360738 323.55125523 74.37752342 C322.132628 72.6626993 320.7565787 70.91172197 319.42625523 69.12752342 C314.23550571 62.61485127 307.84293987 56.97274963 300.30516148 53.27596092 C298.55125523 52.37752342 298.55125523 52.37752342 296.80125523 50.06502342 C292.41785424 44.82929447 285.9585761 41.99799798 280.03172398 38.76424217 C277.18806172 37.17447824 274.40667847 35.4922078 271.61375523 33.81502342 C266.40421847 30.76843357 261.22218768 28.41301485 255.55125523 26.37752342 C254.66695835 26.05139061 253.78266148 25.7252578 252.87156773 25.38924217 C249.07073118 23.99488429 245.25985275 22.62976632 241.44578648 21.27205467 C240.44934116 20.91498436 239.45289585 20.55791405 238.42625523 20.19002342 C237.5161771 19.86646873 236.60609898 19.54291405 235.66844273 19.20955467 C233.55125523 18.37752342 233.55125523 18.37752342 232.55125523 17.37752342 C230.38829249 17.16820445 228.22030813 17.00955273 226.05125523 16.87752342 C219.66236634 16.48863453 219.66236634 16.48863453 218.55125523 15.37752342 C216.25481614 15.34606535 213.97475394 15.44560132 211.68016148 15.53767967 C209.55125523 15.37752342 209.55125523 15.37752342 207.55125523 13.37752342 C196.56382527 10.97118546 184.39979225 12.27282918 173.23875523 12.81502342 Z " fill="#FDF4E9" transform="translate(217.44874477386475,57.62247657775879)"/>
<path d="M0 0 C7.38636406 3.18995399 13.53469486 10.23927296 19 16 C19.55300781 16.56976563 20.10601562 17.13953125 20.67578125 17.7265625 C26.47230549 23.95751575 31.43138049 31.28116753 32 40 C32.2165625 41.7325 32.2165625 41.7325 32.4375 43.5 C32.18260122 55.66562346 23.40328658 66.15786868 16 75 C-0.60317026 93.80653898 -0.60317026 93.80653898 -6.23828125 117.4609375 C-5.14871415 129.07107869 2.51568792 136.97885307 10.75 144.625 C12 146 12 146 12 148 C-5.16892339 144.03794076 -24.1255205 133.81169924 -33.875 118.8125 C-38.17232724 111.82578584 -37.84693401 103.42037768 -36.609375 95.5 C-32.95813538 82.39298599 -18.73132614 70.12862787 -8.32421875 61.87890625 C0.30331448 54.90437938 7.87883669 43.99148263 10 33 C11.10703075 21.51455599 7.86423114 12.52825504 1.42578125 3.1171875 C0 1 0 1 0 0 Z " fill="#AA1720" transform="translate(396,152)"/>
<path d="M0 0 C0.66072888 -0.00436032 1.32145777 -0.00872064 2.00220874 -0.0132131 C4.23201437 -0.02422353 6.46120862 -0.01372097 8.69101048 -0.00342751 C10.29942425 -0.0068818 11.90783566 -0.01164483 13.51624209 -0.01760924 C17.94841932 -0.03018043 22.38040379 -0.02392118 26.8125819 -0.01465058 C31.58771497 -0.00788531 36.36281402 -0.01832879 41.13794041 -0.02659035 C50.49757828 -0.03995722 59.85714414 -0.03703673 69.21678489 -0.02835242 C76.8215678 -0.02158748 84.42633048 -0.020654 92.03111553 -0.02392387 C93.11194505 -0.02438357 94.19277458 -0.02484327 95.30635651 -0.0253169 C97.50179899 -0.02627604 99.69724146 -0.02724868 101.89268393 -0.02823468 C122.49842682 -0.03679733 143.10412972 -0.02694094 163.70986605 -0.01083358 C181.40270267 0.00256849 199.09548023 0.00024411 216.78831577 -0.01358986 C237.31690699 -0.0296335 257.84546312 -0.03597127 278.37405974 -0.02675307 C280.56189954 -0.02579739 282.74973934 -0.02485428 284.93757915 -0.02392387 C286.01413435 -0.02346105 287.09068954 -0.02299822 288.19986762 -0.02252137 C295.79779391 -0.01992769 303.39569801 -0.02431065 310.99362087 -0.03136253 C320.24977825 -0.03976432 329.50585928 -0.03752535 338.76200788 -0.0215203 C343.48751382 -0.01361946 348.21289233 -0.01057673 352.93839741 -0.02046776 C357.26054762 -0.02937788 361.58245173 -0.02454295 365.90457947 -0.0085351 C367.47184286 -0.00517159 369.03912686 -0.00691639 370.60637712 -0.01416247 C372.73010713 -0.02323153 374.85298448 -0.01398399 376.97666931 0 C378.74904281 0.00073059 378.74904281 0.00073059 380.55722183 0.00147593 C383.93346666 0.42552878 385.33149054 0.79109087 387.55125523 3.37752342 C388.05265188 6.30391592 388.05265188 6.30391592 388.05461979 9.96682453 C388.06043355 10.64274878 388.06624732 11.31867303 388.07223725 12.01507983 C388.0869209 14.29672715 388.07291431 16.57731269 388.0591898 18.85895348 C388.06379545 20.50449284 388.0701461 22.1500281 388.07809877 23.7955547 C388.09486167 28.33039326 388.08651431 32.86489693 388.0741539 37.399737 C388.06513399 42.28531056 388.07905793 47.17082499 388.09007359 52.05638695 C388.10789661 61.63261303 388.1040019 71.20871399 388.09242302 80.78494506 C388.08340329 88.56564778 388.08215836 96.34631534 388.08651829 104.12702179 C388.08713122 105.23282956 388.08774415 106.33863734 388.08837566 107.47795444 C388.08965451 109.72412992 388.09095136 111.97030539 388.09226602 114.21648086 C388.10368304 135.2986513 388.09054082 156.38075227 388.06906456 177.46291132 C388.05119505 195.56509874 388.05429432 213.66718356 388.0727396 231.76936913 C388.09413078 252.77260706 388.10258169 273.77578403 388.09029055 294.77903134 C388.0890163 297.01742398 388.08775882 299.25581663 388.08651829 301.49420929 C388.08559263 303.14635757 388.08559263 303.14635757 388.08464828 304.83188258 C388.08118994 312.60564515 388.0870342 320.37936916 388.0964365 328.15312576 C388.10763852 337.62340122 388.10465444 347.09354401 388.08331352 356.5638042 C388.07277849 361.39870607 388.06872288 366.23338651 388.08191013 371.0682869 C388.09378941 375.49042598 388.08734573 379.91213743 388.06599993 384.33423746 C388.06151479 385.93783795 388.06384272 387.54147423 388.07350308 389.14505189 C388.08559399 391.31801518 388.07326911 393.48949646 388.05461979 395.66238117 C388.05397038 396.87130337 388.05332097 398.08022556 388.05265188 399.32578176 C387.55125523 402.37752342 387.55125523 402.37752342 385.93070656 404.76575953 C382.78285238 406.89801483 380.76905715 406.87880365 376.97666931 406.88088799 C376.31448699 406.88670175 375.65230466 406.89251551 374.97005621 406.89850545 C372.74117631 406.91315582 370.51338902 406.89919804 368.28451633 406.88545799 C366.6745243 406.89006494 365.06453647 406.89641647 363.45455748 406.90436697 C359.02265904 406.92111167 354.59110379 406.91279074 350.15920389 406.9004221 C345.38273372 406.89139495 340.60632377 406.90532965 335.82986546 406.91634178 C326.47001384 406.93415621 317.11029031 406.93027414 307.75043362 406.91869122 C300.14613807 406.90966919 292.54187851 406.90842755 284.93757915 406.91278648 C283.8565964 406.91339942 282.77561364 406.91401235 281.66187384 406.91464385 C279.46610715 406.91592271 277.27034048 406.91721956 275.07457382 406.91853422 C254.47075231 406.92994844 233.86700191 406.91681282 213.26319207 406.89533275 C195.57003362 406.87745849 177.87698014 406.88056698 160.18382359 406.8990078 C139.65376209 406.92039528 119.12376296 406.9288524 98.59369189 406.91655874 C96.40616644 406.9152845 94.21864099 406.91402702 92.03111553 406.91278648 C90.95471461 406.91216938 89.8783137 406.91155228 88.76929457 406.91091648 C81.17037929 406.90745739 73.57150344 406.91330387 65.97259426 406.9227047 C56.71750837 406.9339024 47.46255825 406.93093161 38.20748799 406.90958172 C33.48206572 406.89904158 28.75687011 406.89499972 24.03144932 406.90817833 C19.71055512 406.92004688 15.39009894 406.913632 11.06924481 406.89226812 C9.5013581 406.88777844 7.93343481 406.89012094 6.36557137 406.89977127 C4.24317922 406.91183856 2.12231091 406.89956223 0 406.88088799 C-1.18141998 406.88023858 -2.36283996 406.87958917 -3.58006054 406.87892008 C-6.44874477 406.37752342 -6.44874477 406.37752342 -8.32819611 404.76575953 C-9.81496383 401.59699725 -9.8248572 399.16461916 -9.8262682 395.66238117 C-9.83062852 394.98500348 -9.83498884 394.3076258 -9.83948129 393.60972151 C-9.85047035 391.3293161 -9.83999899 389.04951119 -9.8296957 386.76910973 C-9.83315083 385.12199708 -9.83791441 383.47488674 -9.84387743 381.82778126 C-9.85643696 377.29331995 -9.85019463 372.7590473 -9.84091878 368.22458518 C-9.8341489 363.33769534 -9.84459922 358.45083862 -9.85285854 353.56395531 C-9.86621984 343.98755094 -9.86330757 334.41121699 -9.85462062 324.83480983 C-9.84785429 317.05460376 -9.84692279 309.27441746 -9.85019207 301.49420929 C-9.85065177 300.38824828 -9.85111147 299.28228728 -9.8515851 298.1428123 C-9.85254424 295.89631262 -9.85351688 293.64981295 -9.85450287 291.40331329 C-9.86306369 270.32308809 -9.85321159 249.24290198 -9.83710177 228.1626832 C-9.82369611 210.06020476 -9.8260274 191.95778402 -9.83985806 173.85530663 C-9.85589847 152.85061364 -9.86224161 131.84595493 -9.85302126 110.84125668 C-9.85206558 108.60317839 -9.85112247 106.36510009 -9.85019207 104.12702179 C-9.84972924 103.02574388 -9.84926642 101.92446597 -9.84878957 100.789816 C-9.84619519 93.01507758 -9.85058025 85.24036083 -9.85763073 77.46562576 C-9.86602877 67.99646545 -9.86380134 58.52737978 -9.8477885 49.05822807 C-9.83988316 44.22347564 -9.83685256 39.38884784 -9.84673595 34.55409622 C-9.85563662 30.13335093 -9.850827 25.71284647 -9.8348033 21.29212321 C-9.83143578 19.68789557 -9.83319341 18.08364784 -9.84043066 16.47943299 C-9.84947875 14.30826918 -9.84027388 12.13794364 -9.8262682 9.96682453 C-9.82578114 8.75806469 -9.82529408 7.54930485 -9.82479227 6.30391592 C-9.44874477 3.37752342 -9.44874477 3.37752342 -8.32819611 1.48928732 C-5.52756756 -0.16738644 -3.24144927 0.00133633 0 0 Z M-7.44874477 4.37752342 C-7.75372527 7.31464884 -7.75372527 7.31464884 -7.70042706 10.83374596 C-7.70333394 11.50742718 -7.70624082 12.1811084 -7.70923579 12.87520421 C-7.716592 15.1549559 -7.70956656 17.43444317 -7.70271206 19.71419334 C-7.70501428 21.35616602 -7.70818919 22.99813768 -7.71216655 24.64010715 C-7.72055606 29.16958137 -7.71637053 33.69897187 -7.71019411 38.22844648 C-7.70568753 43.10648334 -7.71264443 47.98450534 -7.71815395 52.86253929 C-7.72706886 62.42550111 -7.72511664 71.98843163 -7.71932867 81.5513947 C-7.71482041 89.32021229 -7.71419565 97.08902107 -7.7163763 104.85783958 C-7.71668277 105.96158493 -7.71698924 107.06533028 -7.71730499 108.20252246 C-7.71794441 110.44443393 -7.71859284 112.6863454 -7.71925017 114.92825687 C-7.72495961 135.97362132 -7.71838597 157.01896838 -7.70764944 178.06432998 C-7.69871337 196.1404162 -7.70026524 214.21647673 -7.70948696 232.29256248 C-7.72017877 253.26023628 -7.72441023 274.22789481 -7.71826243 295.19557095 C-7.7176253 297.42944971 -7.71699656 299.66332849 -7.7163763 301.89720726 C-7.71606775 302.99645175 -7.7157592 304.09569623 -7.7154413 305.22825116 C-7.71371109 312.99191 -7.71663647 320.75555919 -7.72133541 328.51921654 C-7.72693217 337.97453137 -7.72545329 347.42981297 -7.71477392 356.88512397 C-7.70950091 361.71363959 -7.70748803 366.54209973 -7.71407223 371.37061501 C-7.72000028 375.78455431 -7.71680904 380.19838631 -7.70611712 384.61231577 C-7.70386965 386.21524086 -7.70504922 387.81817488 -7.7098687 389.4210943 C-7.71588764 391.58796155 -7.70977683 393.75445375 -7.70042706 395.92130089 C-7.70010235 397.12848683 -7.69977765 398.33567278 -7.6994431 399.57944012 C-7.73775532 402.51596895 -7.73775532 402.51596895 -5.44874477 404.37752342 C-2.57360223 404.68238203 -2.57360223 404.68238203 0.86692142 404.6292057 C1.85465021 404.63356603 1.85465021 404.63356603 2.86233312 404.63801444 C5.09039626 404.64536995 7.31818877 404.63834554 9.54625034 404.63149071 C11.15109985 404.63379295 12.75594831 404.63696788 14.36079454 404.6409452 C18.78765524 404.64933433 23.21443028 404.64514935 27.64129138 404.63897276 C32.4088979 404.63446602 37.17648921 404.64142315 41.94409275 404.6469326 C51.29048359 404.65584734 60.6368424 404.65389536 69.98323452 404.64810732 C77.57613681 404.64359899 85.16903009 404.64297432 92.76193333 404.64515495 C94.38008397 404.64561465 94.38008397 404.64561465 96.03092453 404.64608364 C98.222103 404.64672306 100.41328147 404.64737148 102.60445994 404.64802882 C123.17340844 404.65373821 143.74233914 404.64716469 164.31128472 404.63642809 C181.97803511 404.62749203 199.64475922 404.6290439 217.31150913 404.63826561 C237.80454361 404.64895751 258.29756247 404.65318883 278.79059935 404.64704108 C280.97392527 404.64640395 283.1572512 404.64577521 285.34057713 404.64515495 C286.41494462 404.6448464 287.48931211 404.64453785 288.5962362 404.64421995 C296.18406515 404.64248976 303.77188423 404.64541506 311.35971165 404.65011406 C320.60092962 404.65571091 329.8421136 404.65423173 339.08332765 404.64355257 C343.80247932 404.63827968 348.52157421 404.63626646 353.24072552 404.64285088 C357.55474289 404.64877919 361.86865047 404.64558724 366.18265778 404.63489577 C367.74924391 404.63264842 369.31583919 404.63382762 370.88241953 404.63864735 C373.00027743 404.64466689 375.11775169 404.63855488 377.23558903 404.6292057 C378.41543511 404.628881 379.59528119 404.62855629 380.81088018 404.62822175 C383.69639449 404.65888208 383.69639449 404.65888208 385.55125523 402.37752342 C385.85623572 399.440398 385.85623572 399.440398 385.80293751 395.92130089 C385.80729783 394.91077905 385.80729783 394.91077905 385.81174624 393.87984264 C385.81910245 391.60009094 385.81207701 389.32060368 385.80522251 387.0408535 C385.80752473 385.39888082 385.81069964 383.75690917 385.814677 382.11493969 C385.82306651 377.58546548 385.81888098 373.05607497 385.81270456 368.52660036 C385.80819798 363.6485635 385.81515488 358.7705415 385.82066441 353.89250755 C385.82957931 344.32954573 385.82762709 334.76661522 385.82183912 325.20365214 C385.81733086 317.43483456 385.8167061 309.66602578 385.81888676 301.89720726 C385.81934646 300.24158924 385.81934646 300.24158924 385.81981544 298.55252439 C385.82045486 296.31061291 385.82110329 294.06870144 385.82176062 291.82678998 C385.82747006 270.78142552 385.82089642 249.73607846 385.81015989 228.69071686 C385.80122383 210.61463065 385.8027757 192.53857011 385.81199741 174.46248436 C385.82268923 153.49481057 385.82692068 132.52715204 385.82077289 111.5594759 C385.82013576 109.32559713 385.81950702 107.09171836 385.81888676 104.85783958 C385.81857821 103.7585951 385.81826965 102.65935061 385.81795175 101.52679569 C385.81622154 93.76313685 385.81914692 85.99948765 385.82384586 78.23583031 C385.82944262 68.78051548 385.82796374 59.32523388 385.81728438 49.86992288 C385.81201136 45.04140725 385.80999849 40.21294711 385.81658268 35.38443184 C385.82251073 30.97049254 385.81931949 26.55666054 385.80862758 22.14273107 C385.80638011 20.53980598 385.80755967 18.93687196 385.81237915 17.33395255 C385.81839809 15.16708529 385.81228728 13.00059309 385.80293751 10.83374596 C385.8026128 9.62656001 385.8022881 8.41937407 385.80195355 7.17560673 C385.84026577 4.23907789 385.84026577 4.23907789 383.55125523 2.37752342 C380.67611268 2.07266482 380.67611268 2.07266482 377.23558903 2.12584114 C376.57710317 2.12293426 375.91861731 2.12002738 375.24017733 2.11703241 C373.01211419 2.1096769 370.78432169 2.1167013 368.55626011 2.12355614 C366.9514106 2.12125389 365.34656214 2.11807896 363.74171591 2.11410165 C359.31485521 2.10571252 354.88808017 2.10989749 350.46121907 2.11607409 C345.69361255 2.12058083 340.92602124 2.11362369 336.1584177 2.10811424 C326.81202686 2.0991995 317.46566805 2.10115148 308.11927593 2.10693952 C300.52637364 2.11144785 292.93348036 2.11207252 285.34057713 2.10989189 C284.26181003 2.10958543 283.18304293 2.10927896 282.07158592 2.10896321 C279.88040745 2.10832379 277.68922898 2.10767536 275.49805051 2.10701802 C254.92910201 2.10130864 234.36017131 2.10788215 213.79122573 2.11861876 C196.12447534 2.12755482 178.45775123 2.12600295 160.79100132 2.11678123 C140.29796684 2.10608934 119.80494798 2.10185801 99.31191111 2.10800576 C97.12858518 2.10864289 94.94525926 2.10927163 92.76193333 2.10989189 C91.68756583 2.11020044 90.61319834 2.11050899 89.50627425 2.11082689 C81.91844531 2.11255708 74.33062623 2.10963178 66.74279881 2.10493279 C57.50158083 2.09933593 48.26039686 2.10081511 39.0191828 2.11149427 C34.30003113 2.11676716 29.58093624 2.11878038 24.86178493 2.11219597 C20.54776757 2.10626765 16.23385998 2.1094596 11.91985267 2.12015107 C10.35326654 2.12239843 8.78667126 2.12121922 7.22009093 2.1163995 C5.10223302 2.11037995 2.98475876 2.11649196 0.86692142 2.12584114 C-0.31292466 2.12616585 -1.49277074 2.12649055 -2.70836973 2.12682509 C-5.59388404 2.09616477 -5.59388404 2.09616477 -7.44874477 4.37752342 Z " fill="#617CFE" transform="translate(217.44874477386475,57.62247657775879)"/>
<path d="M0 0 C5.4468332 4.69554586 7.59430295 10.93913309 8.15795898 17.97045898 C9.00657515 34.26281293 5.89789828 46.38420643 -5 59 C-7.50628485 61.60840851 -10.09636012 64.12914991 -12.69506836 66.64501953 C-19.31644664 73.12741359 -24.77741231 80.34777084 -25.625 89.8125 C-25.73714844 90.99779297 -25.73714844 90.99779297 -25.8515625 92.20703125 C-25.90054687 92.79871094 -25.94953125 93.39039063 -26 94 C-30.27706213 90.15064408 -31.7848723 87.10825148 -32.37109375 81.36328125 C-32.89087134 64.47466767 -24.16349036 54.67886929 -13.859375 42.1875 C-2.43754311 28.29141866 -2.43754311 28.29141866 1.125 11.0625 C1.12757813 9.83660156 1.13015625 8.61070312 1.1328125 7.34765625 C1.02667535 4.67237569 0.79917654 2.53072572 0 0 Z " fill="#D41A23" transform="translate(437,192)"/>
<path d="M0 0 C0.99 0 1.98 0 3 0 C3 174.9 3 349.8 3 530 C1.68 529.67 0.36 529.34 -1 529 C-0.67 528.01 -0.34 527.02 0 526 C0.09515423 523.13053432 0.1320648 520.28562469 0.12304783 517.41611958 C0.12420167 516.52457348 0.12535552 515.63302739 0.12654433 514.71446475 C0.12921042 511.69970557 0.12468886 508.68499882 0.12025452 505.67024231 C0.12069022 503.49800802 0.12156511 501.32577379 0.12284368 499.15353984 C0.12508882 493.1630834 0.12106709 487.17264471 0.11606562 481.18219054 C0.11176158 474.73024025 0.11320751 468.27829104 0.1139679 461.82633972 C0.11466624 450.64080896 0.11138087 439.45528365 0.10573006 428.26975441 C0.0998173 416.53571355 0.09596497 404.80167501 0.09487724 393.06763268 C0.0948085 392.33862049 0.09473976 391.6096083 0.09466894 390.85850484 C0.09433062 387.15636809 0.09402923 383.45423134 0.09374207 379.75209459 C0.09164048 353.51547359 0.08489983 327.27885562 0.07543945 301.04223633 C0.06625822 275.55037451 0.05917304 250.05851353 0.05493164 224.56665039 C0.05480011 223.78117156 0.05466859 222.99569273 0.05453308 222.18641151 C0.05321458 214.29846201 0.05193876 206.41051251 0.05069422 198.52256301 C0.04815786 182.45324895 0.04533661 166.38393495 0.04234314 150.31462097 C0.04220585 149.57574567 0.04206856 148.83687036 0.04192711 148.0756049 C0.03272317 98.71706865 0.01685682 49.35853417 0 0 Z " fill="#FEFEFE" transform="translate(818,0)"/>
<path d="M0 0 C4.82344489 1.33060549 5.84756665 2.91553919 8.625 7 C10.84072798 13.64718395 10.95962643 23.25329533 7.9375 29.6875 C5.95973472 32.86160581 3.93206128 35.15419836 0.625 37 C-2.875 37.625 -2.875 37.625 -6.375 37 C-9.02345953 34.77257763 -10.8264064 32.09718721 -12.375 29 C-12.49944602 26.6065847 -12.55067069 24.20911922 -12.5625 21.8125 C-12.57667969 20.51957031 -12.59085937 19.22664063 -12.60546875 17.89453125 C-12.22213545 11.41684814 -10.85652088 6.7531282 -6.375 2 C-3.375 0 -3.375 0 0 0 Z " fill="#F4F4F4" transform="translate(299.375,327)"/>
<path d="M0 0 C5.23755512 5.9358958 6.55747779 11.33757604 6.3671875 19.12890625 C5.32982102 27.24022927 0.86584576 32.89623058 -5.26953125 38.00390625 C-9.03627461 40.7575627 -12.98288199 43.18493474 -16.95751953 45.625 C-21.39077541 48.4159941 -24.67043948 51.44064346 -27.86328125 55.56640625 C-28.23839844 56.03949219 -28.61351562 56.51257813 -29 57 C-29.33 57 -29.66 57 -30 57 C-30.72779638 50.30427326 -28.67256026 45.57716709 -25 40 C-21.02065277 35.36247176 -16.52689877 31.42794573 -11.8125 27.5625 C-5.01599232 21.75828244 -1.16437536 14.13884362 -0.4375 5.3125 C-0.35371094 4.31863281 -0.26992188 3.32476562 -0.18359375 2.30078125 C-0.09271484 1.16189453 -0.09271484 1.16189453 0 0 Z " fill="#E11B24" transform="translate(447,241)"/>
<path d="M0 0 C12 0 12 0 15.1875 1.875 C18.36147687 5.59621427 18.32944841 8.14063594 18 13 C17.00585407 14.67016516 16.0064275 16.33720673 15 18 C15.11360725 22.20346833 17.23402302 25.54582012 19.2578125 29.1328125 C20 31 20 31 19 34 C16.4375 35.1875 16.4375 35.1875 14 36 C13.59007812 35.07316406 13.18015625 34.14632812 12.7578125 33.19140625 C12.21898437 31.99386719 11.68015625 30.79632813 11.125 29.5625 C10.59132813 28.36753906 10.05765625 27.17257812 9.5078125 25.94140625 C8.32272765 22.91472369 8.32272765 22.91472369 6 22 C6 26.62 6 31.24 6 36 C4.02 36 2.04 36 0 36 C0 24.12 0 12.24 0 0 Z " fill="#FBFBFB" transform="translate(382,326)"/>
<path d="M0 0 C0 4.95 0 9.9 0 15 C1.98 15 3.96 15 6 15 C6 10.05 6 5.1 6 0 C7.98 0 9.96 0 12 0 C12 11.88 12 23.76 12 36 C9.69 36 7.38 36 5 36 C5 30.72 5 25.44 5 20 C3.35 20 1.7 20 0 20 C0 25.94 0 31.88 0 38 C-2.31 38 -4.62 38 -7 38 C-7 25.79 -7 13.58 -7 1 C-5 0 -5 0 0 0 Z " fill="#F1F1F1" transform="translate(513,327)"/>
<path d="M0 0 C2.475 0.495 2.475 0.495 5 1 C5.42954501 11.40453468 4.14073871 21.67722487 3 32 C1.35 32 -0.3 32 -2 32 C-4.31 27.38 -6.62 22.76 -9 18 C-9 23.61 -9 29.22 -9 35 C-11.64 35 -14.28 35 -17 35 C-17.12818318 23.62018175 -16.79568202 12.35267742 -16 1 C-14.02 1 -12.04 1 -10 1 C-7.69 5.62 -5.38 10.24 -3 15 C-1.68272247 9.9943454 -0.64187918 5.13503344 0 0 Z " fill="#F3F3F3" transform="translate(329,325)"/>
<path d="M0 0 C0.99 0.66 1.98 1.32 3 2 C2.67 3.98 2.34 5.96 2 8 C1.113125 7.9175 0.22625 7.835 -0.6875 7.75 C-4.76006261 8.05736322 -6.18307896 9.1025955 -9 12 C-10.76328247 17.28984742 -10.95339289 23.05348951 -8.5 28.0625 C-8.005 28.701875 -7.51 29.34125 -7 30 C-4.6568787 29.74438677 -2.32156597 29.40729228 0 29 C0.33 28.34 0.66 27.68 1 27 C2.98 29.97 2.98 29.97 5 33 C1.1438372 36.2308391 -1.30327506 37.81147501 -6.375 38.375 C-10 38 -10 38 -12.8125 35.8125 C-16.83636071 30.6389648 -17.36374896 26.06059319 -17.375 19.625 C-17.39949219 18.89539063 -17.42398437 18.16578125 -17.44921875 17.4140625 C-17.48518813 10.69977853 -15.34490974 6.54031888 -10.75 1.5625 C-6.84824056 -0.65440877 -4.45961368 -0.43157552 0 0 Z " fill="#F6F6F6" transform="translate(498,330)"/>
<path d="M0 0 C1.65 0 3.3 0 5 0 C4.57602706 6.35959416 3.23612082 11.71768338 1.1171875 17.71875 C-0.51484147 22.5121218 -1.82842713 27.37852918 -3.16796875 32.26171875 C-4 35 -4 35 -5 36 C-7.33297433 36.04092937 -9.66705225 36.04241723 -12 36 C-12.51283306 32.56429127 -13.00780398 29.12622082 -13.5 25.6875 C-13.64308594 24.73037109 -13.78617187 23.77324219 -13.93359375 22.78710938 C-14.87257641 16.14716053 -15.17714233 9.70270487 -15 3 C-13.35 2.67 -11.7 2.34 -10 2 C-9.01 7.61 -8.02 13.22 -7 19 C-4.69 12.73 -2.38 6.46 0 0 Z " fill="#F4F4F4" transform="translate(421,324)"/>
<path d="M0 0 C0.33 1.32 0.66 2.64 1 4 C-2.465 5.485 -2.465 5.485 -6 7 C-6.11635105 9.29781554 -6.11635105 9.29781554 -5 12 C-3.06852026 13.73620926 -1.04908431 15.19672785 1.08984375 16.66796875 C3 18 3 18 5 20 C5.49870772 25.18656025 4.95104229 28.67180464 2 33 C-1.40368809 35.39805297 -3.32939095 36.01197516 -7.5 35.9375 C-11.48942748 34.86890335 -13.73443841 33.46908315 -17 31 C-16.34 29.02 -15.68 27.04 -15 25 C-14.13375 25.495 -13.2675 25.99 -12.375 26.5 C-8.89250377 28.0477761 -6.75240542 28.26802896 -3 28 C-2.58109782 25.21061788 -2.58109782 25.21061788 -3 22 C-5.90769698 18.42768657 -9.05994234 16.29836697 -13 14 C-14.55024464 10.89951072 -14.28992015 8.42105782 -14 5 C-9.72999974 -1.54733374 -7.16272146 -1.03974989 0 0 Z " fill="#F6F6F6" transform="translate(374,327)"/>
<path d="M0 0 C0.04254356 1.99954746 0.04080783 4.00041636 0 6 C-1 7 -1 7 -2.84765625 7.09765625 C-4.8984375 7.06510417 -6.94921875 7.03255208 -9 7 C-9 10.3 -9 13.6 -9 17 C-6.69 17 -4.38 17 -2 17 C-2 18.98 -2 20.96 -2 23 C-4.31 23 -6.62 23 -9 23 C-9 25.64 -9 28.28 -9 31 C-5.7 31 -2.4 31 1 31 C1 32.65 1 34.3 1 36 C-4.28 36 -9.56 36 -15 36 C-15 24.78 -15 13.56 -15 2 C-5 0 -5 0 0 0 Z " fill="#F4F4F4" transform="translate(476,328)"/>
<path d="M0 0 C0 2.31 0 4.62 0 7 C-2.97 7 -5.94 7 -9 7 C-9 10.3 -9 13.6 -9 17 C-6.69 17 -4.38 17 -2 17 C-2 18.98 -2 20.96 -2 23 C-4.31 23 -6.62 23 -9 23 C-9 25.64 -9 28.28 -9 31 C-5.7 31 -2.4 31 1 31 C1 32.65 1 34.3 1 36 C-3.95 36 -8.9 36 -14 36 C-14.89310233 28.41917867 -15.12275211 21.00384465 -15.0625 13.375 C-15.05798828 12.27542969 -15.05347656 11.17585938 -15.04882812 10.04296875 C-15.03717139 7.36191997 -15.02081017 4.68099068 -15 2 C-13.43883181 1.66048381 -11.87598662 1.32867456 -10.3125 1 C-9.44238281 0.814375 -8.57226562 0.62875 -7.67578125 0.4375 C-5.06287036 0.01027953 -2.64186962 -0.07616201 0 0 Z " fill="#F7F7F7" transform="translate(353,328)"/>
<path d="M0 0 C0 2.31 0 4.62 0 7 C-1.98 7 -3.96 7 -6 7 C-6 16.57 -6 26.14 -6 36 C-8.64 36 -11.28 36 -14 36 C-14.12276617 26.26055028 -13.83779436 16.70943816 -13 7 C-14.98 7 -16.96 7 -19 7 C-19 5.02 -19 3.04 -19 1 C-12.62694402 0.25492456 -6.41688675 -0.10349817 0 0 Z " fill="#F5F5F5" transform="translate(458,327)"/>
<path d="M0 0 C4.875 0.875 4.875 0.875 6 2 C6.1264848 4.24731125 6.17582553 6.49916239 6.1875 8.75 C6.20167969 9.98234375 6.21585937 11.2146875 6.23046875 12.484375 C6.0104371 15.84078995 5.61254791 18.06461617 4 21 C1.375 21.8125 1.375 21.8125 -1 22 C-3.56204902 17.19615808 -3.56823939 12.30356761 -3 7 C-2.21888607 4.4534783 -1.23927323 2.37527369 0 0 Z " fill="#161616" transform="translate(297,334)"/>
<path d="M0 0 C4.55555556 0.55555556 4.55555556 0.55555556 6 2 C6.1875 4.4375 6.1875 4.4375 6 7 C5.34 7.66 4.68 8.32 4 9 C-0.55555556 8.44444444 -0.55555556 8.44444444 -2 7 C-2.1875 4.5625 -2.1875 4.5625 -2 2 C-1.34 1.34 -0.68 0.68 0 0 Z " fill="#E7E7E7" transform="translate(431,353)"/>
<path d="M0 0 C2.31 0.33 4.62 0.66 7 1 C7 2.65 7 4.3 7 6 C6.01 5.855625 5.02 5.71125 4 5.5625 C0.00590535 4.99074821 -3.99532937 4.49180166 -8 4 C-8 3.34 -8 2.68 -8 2 C-5.36 2 -2.72 2 0 2 C0 1.34 0 0.68 0 0 Z " fill="#2B2A29" transform="translate(359,441)"/>
<path d="M0 0 C0.66 0 1.32 0 2 0 C2.24492187 0.61359375 2.48984375 1.2271875 2.7421875 1.859375 C4.25052285 4.42635567 5.44256788 5.03857904 8.125 6.25 C8.84945313 6.58515625 9.57390625 6.9203125 10.3203125 7.265625 C10.87460937 7.50796875 11.42890625 7.7503125 12 8 C11.34 9.32 10.68 10.64 10 12 C6.88175879 10.63746417 4.95262649 9.14891747 2.75 6.5625 C2.22921875 5.96566406 1.7084375 5.36882812 1.171875 4.75390625 C0 3 0 3 0 0 Z " fill="#2C2B2A" transform="translate(252,376)"/>
<path d="M0 0 C1.66611905 -0.042721 3.33382885 -0.04063832 5 0 C6 1 6 1 6.0625 3.5625 C6.041875 4.366875 6.02125 5.17125 6 6 C4.02 6.33 2.04 6.66 0 7 C0 4.69 0 2.38 0 0 Z " fill="#292929" transform="translate(388,332)"/>
<path d="M0 0 C5.44693314 -0.09688221 10.63904667 -0.12862175 16 1 C15.67 1.99 15.34 2.98 15 4 C9.86496656 3.35812082 5.0056546 2.31727753 0 1 C0 0.67 0 0.34 0 0 Z " fill="#C9C2BA" transform="translate(390,443)"/>
<path d="M0 0 C4.6875 3.61328125 4.6875 3.61328125 6 5 C6 5.99 6 6.98 6 8 C3.11562221 6.70700306 1.12780579 5.34058637 -1 3 C-0.67 2.01 -0.34 1.02 0 0 Z " fill="#2B2A29" transform="translate(270,395)"/>
<path d="M0 0 C1.98 0.495 1.98 0.495 4 1 C3.67 2.32 3.34 3.64 3 5 C1.68 5.33 0.36 5.66 -1 6 C-0.67 4.02 -0.34 2.04 0 0 Z " fill="#43413E" transform="translate(253,142)"/>
</svg>
